<svg xmlns="http://www.w3.org/2000/svg" width="1144" height="882" viewBox="0 0 1144 882">
  <defs>
    <style>
      .cls-1 {
        fill: #f887d2;
        fill-rule: evenodd;
      }
    </style>
  </defs>
  <g id="Mesa_de_trabajo_1" data-name="Mesa de trabajo 1">
    <path id="Britney_copia" data-name="Britney  copia" class="cls-1" d="M1076.78,283.323c-1.33,74.111-10.74,128.973-50.97,136.681-50.856,9.561-65.075-78.314,1.41-120.345q8.1-4.756,14.96-9.191c-0.08-10.645-.16-21.29-0.76-32.244-4.21,23.305-13.88,42.685-32.12,46.055-22.206,4.43-35.955-11.412-44.01-37.067-8.631,32.77-28.531,65.951-63.387,63.431-19.576-1.4-33.542-14.77-42.359-33.948-6.2,27.577-19.263,56.747-44.817,57.763-73.452,2.945-17.31-167.067-48.4-165.271-25.456,1.232-41.821,130.768-43.777,176.6a17.177,17.177,0,0,1-12.825,15.75,17.513,17.513,0,0,1-19.829-8.964c-5.868,11.618-14.41,20.055-26.832,21-18.719,1.57-31.492-11.322-40.068-32.915-4.381,24.713-14.341,50.179-36.593,52.685-20.561,2.422-33.854-10.873-42.084-32.591-6.335,27-19.126,53.838-44.163,54.834-73.869,3.052-21.99-150.752-48.4-165.272-4.086-2.057-9.193-1.184-14.919.737-2.531,24.649-6.878,57.766-8.014,101.608-0.3,2.3-1.95,4.5-4.14,4.623-3.025.336-5.753-1.627-5.671-4.759,1.055-40.711,5.092-73.3,8.147-97.643-13.737,5.32-28.307,10.855-38-.867-15.373-18.254,1.343-72.336,37.79-55.072,10.684,5.243,12.86,17.125,11.136,38.011,8-5.173,16.829-10.561,26.318-11.675,63.735-4.439,4.743,175.2,46.342,169.357,12.683-1.81,23.284-26.807,27.5-55.361-7.152-34.555-6.571-80.086-3.334-119.736a17.716,17.716,0,0,1,17.623-16.1A16.68,16.68,0,0,1,570,241.152c-2.121,65.872-7.486,158.8,22.743,153.668,13.754-2.493,20.713-33.478,23.2-57.6-10.958-48.3-9.916-119.2-7.217-178.492l-27.084,6.985c-3.75.967-7.419-1.2-8.493-5.364a6.8,6.8,0,0,1,4.947-8.386l31.25-8.059c0.715-16.183,1.753-31.115,2.386-44.165a17.5,17.5,0,0,1,17.1-16.408l0.525,0.309a16.68,16.68,0,0,1,17.456,17.717c-0.042,8.454-.581,20.147-1.215,33.2l22.917-5.91c4.166-1.075,7.835,1.09,8.8,4.84a7,7,0,0,1-5.256,8.91l-27.084,6.985c-3.213,87.483-6.448,228.3,24.008,225.776,9.408-.786,15.549-15.2,19.3-31.978l1.941-142.366a17.38,17.38,0,1,1,34.757.368l-1,61.584c9.04-47.658,24.45-94.737,50.834-97.542,72.378-7.112,9.326,174.015,50.509,168.282,13.221-1.964,23.923-27.362,27.72-55.244-12.451-47.48-1.66-113.43,28.045-136.89,16.185-13.061,46.13-14.118,52.711,14.847,8.314,37.406-17.136,81.742-48.656,95.647,2.294,27.849,9.776,51.694,25.044,55.755,22.976,5.982,43.672-25.736,49.762-63.16-5.834-34.055-5.37-77-2.552-113.881a17.718,17.718,0,0,1,17.623-16.1l0.417-.108c9.7-.28,17.592,7.906,17.456,17.718-2.538,65.978-6.827,163.071,22.328,153.775,23.43-7.375,23.16-113.514,24.38-146.712,0.13-9.811.27-19.623,0.51-29.017a18.078,18.078,0,0,1,13.45-16.8c11.25-2.9,22.48,6.2,22.36,17.786-1.28,53.654,1.11,107.7.83,154.874,27.29-21.7,37.48-40.772,38.48-74.8a5.774,5.774,0,0,1,4.56-4.731,5.207,5.207,0,0,1,5.36,5.283C1124.85,221.6,1120.99,249.7,1076.78,283.323Zm-38.13,24.5c-55.5,31.2-43.921,100.2-20.68,95.545,18.65-3.478,23.36-43.8,24.11-97.762C1040.94,306.341,1039.8,307.08,1038.65,307.819ZM424.535,230.227c-11.3-4.195-17.2,31.542-9.858,35.871,3.978,1.641,8.562.459,13.549-2.605C430.272,243.857,430.4,232.271,424.535,230.227ZM911.206,149.6c-15.886-3.013-27.117,44.766-26.479,88.6C920.59,218.728,926.676,152.723,911.206,149.6Zm-358.128,62.14a3.57,3.57,0,0,1-3.548.026c-19.406-13.215-24.524-27.893-17.494-36.816,4.652-6.088,15.1-5.226,19.435,2.987a11.687,11.687,0,0,1,19.7-2.86C577.813,183.588,572.811,198.654,553.078,211.742Zm-404.1,280.19a3.894,3.894,0,0,1-4.489-.176c-25.7-16.925-32.936-36.388-23.526-48.147,6.305-8.292,19.88-7.349,25.5,4.09,5.445-11.625,19.007-12.456,25.537-4.364C181.572,454.64,174.728,474.625,148.973,491.932ZM398.29,348.98c25.671,84.034-29.089,187.032-97.743,189.628-52.8,2.062-55.406-54.59-48.682-76.766a7.361,7.361,0,0,1,9.772-5.186c3.037,1.438,5.254,4.866,4.232,7.8-6.132,17.579-1.945,61.382,31.307,55.917,50.349-8.1,85.769-115.439,55.054-175.953-22.035-44.088-70.88-30.158-100.814-13.551-2.84,25.174-4.86,48.358-6.4,66.529-0.312,14.3-1.255,27.875-2.3,41.033-5.452,52.955-18.685,98.139-47.854,119.438C140.153,597.3,75.538,553.531,70.887,475.186c-3.647-55.5,25.876-99.549,89.894-108.06a6.758,6.758,0,1,1,1.248,13.454c-125.993,11.162-77.853,197.83-1.56,169.712,67.757-25.028,40.273-198.8,44.353-324.283l-0.108-.417c-0.107-.417.2-0.941,0.094-1.357,0.2-.941-0.12-2.191-0.026-3.549a42.261,42.261,0,0,0,.364-7.2c-0.107-.416.309-0.524,0.2-0.94,0.377-5.43.647-11.277,0.917-17.123-33.926,13.193-76.841,10.484-91.859,40.131-12.557,23.68-2.632,67.336,30.2,61.979,10-16.355,22.382-21.77,30.875-16.406,6.814,4.02,7.726,14.45-.272,19.623,9.207,2.959,11.369,13.066,5.777,18.952-7.044,7.149-20.417,5.265-33.976-7.68-49.409,8.3-63.847-52.858-46.222-82.733,23.393-40.251,79.922-31.277,107.962-50.062,3.794-23.2,10.033-40.36,21.176-43.678,7.487-3.708,19.5-1.918,24.057,7.128,5.092,11.129,2.993,23.669-11.323,35.36-0.23,11.169-.138,23.588-0.665,37.055,0.145,19.515.84,42.888,1.858,67.511,9.7-70.937,28.961-147.893,60.334-167.538,21.924-13.208,56.3-7.41,65.3,37.819,11.147,53.561-14.452,105.935-56.163,138.911C355.344,285.843,386.307,309.41,398.29,348.98ZM337.647,179.312c0.694-47.284-26.223-74.115-52.469-10.466-14.764,35.8-24.382,89.832-30.9,140.394C289.094,302.929,337.167,241.205,337.647,179.312Z" transform="translate(-42)"/>
    <path id="Loh_copia" data-name="Loh copia" class="cls-1" d="M950.658,699.56c-69.23,2.86-16.614-156.475-45.75-154.792-22.585,1.243-37.328,110.414-40.4,158.267,0.1,0.39-.29.491-0.189,0.881l-0.152,5.87c0.251,7.432-4.789,13.73-12.209,15.643A16.358,16.358,0,0,1,832.632,714.9c-4.59,7.314-10.752,12.946-18.975,15.412-10.052,3.008-19.159,1.609-26.036-2.448-9,13.564-21.254,22.556-36.609,22.768-75.491,2.809-73.7-177.571-.788-185.545,54.732-5.785,69.277,95.832,43.961,151.088a17.679,17.679,0,0,0,18.315,3.19c10.5-4.283,16.2-15.324,19.286-27.976l2.625-248.8a16.092,16.092,0,0,1,12.208-15.643c10.153-2.618,20.09,5.231,20.366,15.988L865.13,615c8.372-45.056,22.613-89.96,48.121-92.79,67.442-6.564,8.35,163.188,47.336,157.714,14.852-2.164,26.031-37.948,26.968-69.842-0.113-2.053,1.538-3.728,3.881-4.333,2.834-.314,5.491,1.916,5.315,4.46C996.457,636.522,986.936,698.117,950.658,699.56Zm-193.1-122.2c-40.385,1.669-33.3,151.857-4.41,157.316,6.172,1.323,11.816-2.631,16.264-9.609-5.693-2.7-9.471-10.885-8.071-19.992,1.589-9.988,9.16-17.772,17-16.46a8.775,8.775,0,0,1,3.628,1.147C791.1,642.837,785.618,576.365,757.553,577.355ZM664.425,469.766c-1.548,68.284,19.6,203.6,2.132,287.651,17.784,10.823,35.379,22.528,54.185,26.008,25.469,5.093,43.42-1.2,45.387-12.955a6.277,6.277,0,0,1,6.123-5.327l0.1,0.391a5.67,5.67,0,0,1,5.92,6.8c-2.7,18.6-26.836,34.824-63.252,30.888-20.658-2.585-39.589-9.781-56.668-17.871-6.818,17.168-16.3,30.443-29.356,37.974-32.338,18.335-67.756,3.73-69.828-38.217-1.72-34.124,30.014-54.8,68.721-45.209a37.633,37.633,0,0,0,4.408.945c10.318-85.956-5.632-218.863-.915-255.48-25.648,10.363-63.613,8.492-77.5,35.4-10.219,20.127-2.214,57.628,23.13,59.005,8.09-17.079,19-23.225,27.929-19.28,6.676,3.276,8.022,13.34,1.118,18.869,8.817,1.891,11.625,11.162,6.875,16.969-5.619,7.279-17.749,7.076-31.327-3.583-41.833,4.125-56.322-50.445-40.774-77.361,21.823-38.113,68.945-28.192,91.81-44.5,3.556-21.74,9.4-37.825,19.846-40.935,7.017-3.475,18.277-1.8,22.546,6.68C679.809,447.057,677.842,458.809,664.425,469.766ZM582.765,761.95c-26.2,14.671-14.6,62.9,14,54.281,15.028-4.709,24.781-21.8,30.466-46.589C609.167,760.972,594.065,755.705,582.765,761.95Z" transform="translate(-42)"/>
  </g>
</svg>
