<svg xmlns="http://www.w3.org/2000/svg" width="1032" height="734" viewBox="0 0 1032 734">
  <defs>
    <style>
      .cls-1 {
        fill: #f887d2;
        fill-rule: evenodd;
      }
    </style>
  </defs>
  <g id="Mesa_de_trabajo_1" data-name="Mesa de trabajo 1">
    <path id="Britney_copia" data-name="Britney  copia" class="cls-1" d="M1450.49,729.415c-1.24,69.037-10,120.144-47.47,127.324-47.38,8.907-60.63-72.953,1.3-112.106q7.56-4.431,13.94-8.562c-0.07-9.916-.15-19.832-0.71-30.037-3.92,21.71-12.92,39.763-29.92,42.9-20.68,4.126-33.49-10.632-40.99-34.53-8.04,30.527-26.58,61.436-59.05,59.089-18.24-1.3-31.25-13.76-39.46-31.625-5.78,25.69-17.94,52.863-41.75,53.809-68.42,2.744-16.13-155.63-45.09-153.957-23.71,1.148-38.95,121.816-40.78,164.51a16,16,0,0,1-11.94,14.672,16.3,16.3,0,0,1-18.47-8.35c-5.47,10.823-13.43,18.683-25,19.56-17.44,1.462-29.34-10.547-37.32-30.662-4.09,23.022-13.36,46.744-34.092,49.079-19.154,2.255-31.537-10.129-39.2-30.361-5.9,25.151-17.817,50.153-41.139,51.08C844.533,874.1,892.86,730.82,868.259,717.294c-3.805-1.916-8.563-1.1-13.9.686-2.358,22.962-6.407,53.811-7.465,94.653-0.276,2.141-1.816,4.194-3.857,4.306-2.817.313-5.359-1.516-5.283-4.433,0.983-37.924,4.744-68.285,7.59-90.959-12.8,4.956-26.37,10.112-35.395-.807-14.321-17,1.25-67.384,35.2-51.3,9.953,4.885,11.979,15.953,10.373,35.41,7.451-4.82,15.677-9.839,24.517-10.877,59.372-4.134,4.418,163.2,43.169,157.764,11.815-1.686,21.691-24.972,25.616-51.572-6.663-32.189-6.122-74.6-3.106-111.539a16.5,16.5,0,0,1,16.416-15,15.537,15.537,0,0,1,16.261,16.5c-1.975,61.362-6.973,147.927,21.186,143.149,12.813-2.323,19.293-31.187,21.613-53.656-10.21-44.994-9.24-111.041-6.72-166.272l-25.231,6.506c-3.493.9-6.911-1.116-7.912-5a6.333,6.333,0,0,1,4.609-7.812l29.114-7.507c0.66-15.075,1.63-28.985,2.22-41.142a16.3,16.3,0,0,1,15.93-15.284l0.49,0.288a15.543,15.543,0,0,1,16.26,16.5c-0.04,7.875-.54,18.768-1.13,30.925l21.34-5.5c3.89-1,7.3,1.015,8.2,4.508a6.515,6.515,0,0,1-4.89,8.3l-25.23,6.507c-3,81.494-6.01,212.669,22.36,210.32,8.77-.732,14.49-14.156,17.98-29.789l1.81-132.62a16.191,16.191,0,1,1,32.38.343l-0.94,57.368c8.43-44.395,22.78-88.252,47.36-90.864,67.42-6.625,8.69,162.1,47.05,156.762,12.32-1.83,22.28-25.489,25.82-51.462-11.6-44.231-1.54-105.666,26.13-127.52,15.07-12.167,42.97-13.151,49.1,13.831,7.74,34.845-15.96,76.146-45.33,89.1,2.14,25.942,9.11,48.154,23.33,51.938,21.41,5.572,40.69-23.975,46.36-58.837-5.44-31.723-5-71.732-2.38-106.084a16.512,16.512,0,0,1,16.42-15l0.39-.1c9.04-.262,16.39,7.365,16.26,16.5-2.37,61.462-6.36,151.908,20.8,143.249,21.82-6.87,21.57-105.743,22.71-136.668,0.12-9.14.25-18.28,0.48-27.032a16.814,16.814,0,0,1,12.52-15.648c10.48-2.7,20.94,5.775,20.83,16.568-1.19,49.981,1.03,100.325.78,144.272,25.42-20.217,34.91-37.981,35.84-69.683a5.379,5.379,0,0,1,4.25-4.406,4.845,4.845,0,0,1,4.99,4.921C1495.27,671.917,1491.67,698.1,1450.49,729.415Zm-35.51,22.819c-51.7,29.064-40.92,93.345-19.27,89,17.38-3.24,21.76-40.8,22.46-91.069C1417.11,750.857,1416.04,751.546,1414.98,752.234ZM842.9,679.954c-10.529-3.908-16.018,29.383-9.183,33.415,3.706,1.528,7.976.427,12.621-2.427C848.243,692.651,848.358,681.858,842.9,679.954Zm453.351-75.1c-14.79-2.807-25.26,41.7-24.66,82.529C1305,669.242,1310.66,607.756,1296.25,604.849ZM962.643,662.734a3.331,3.331,0,0,1-3.306.025c-18.077-12.311-22.845-25.984-16.295-34.3,4.332-5.671,14.061-4.868,18.1,2.782a10.888,10.888,0,0,1,18.356-2.664C985.684,636.508,981.025,650.542,962.643,662.734ZM586.2,923.743a3.628,3.628,0,0,1-4.182-.163c-23.936-15.767-30.682-33.9-21.916-44.852,5.874-7.724,18.519-6.845,23.751,3.81,5.072-10.829,17.7-11.6,23.789-4.065C616.569,889,610.193,907.621,586.2,923.743ZM818.451,790.577c23.913,78.281-27.1,174.229-91.052,176.647-49.18,1.92-51.613-50.853-45.349-71.511a6.856,6.856,0,0,1,9.1-4.831c2.829,1.34,4.894,4.533,3.942,7.262-5.712,16.376-1.812,57.18,29.164,52.09,46.9-7.542,79.9-107.537,51.285-163.908-20.526-41.07-66.027-28.094-93.913-12.623-2.645,23.45-4.527,45.047-5.957,61.974-0.29,13.322-1.169,25.967-2.147,38.224-5.079,49.33-17.406,91.421-44.578,111.261-50.964,36.738-111.155-4.037-115.488-77.019-3.4-51.7,24.105-92.734,83.74-100.662a6.3,6.3,0,1,1,1.163,12.533C481,830.412,525.841,1004.3,596.91,978.108c63.119-23.315,37.517-185.195,41.317-302.084l-0.1-.388c-0.1-.388.188-0.876,0.088-1.264,0.188-.877-0.113-2.041-0.025-3.306a39.315,39.315,0,0,0,.339-6.711c-0.1-.388.288-0.488,0.188-0.876,0.352-5.058.6-10.5,0.854-15.951-31.6,12.29-71.58,9.767-85.57,37.384-11.7,22.059-2.452,62.727,28.136,57.736,9.318-15.235,20.85-20.279,28.762-15.282,6.347,3.744,7.2,13.46-.253,18.279,8.576,2.756,10.59,12.172,5.381,17.655-6.562,6.66-19.02,4.905-31.651-7.154-46.026,7.73-59.476-49.24-43.057-77.07,21.792-37.5,74.451-29.135,100.571-46.634,3.534-21.61,9.346-37.6,19.726-40.688,6.975-3.455,18.167-1.788,22.41,6.639,4.744,10.368,2.789,22.049-10.547,32.94-0.215,10.4-.129,21.973-0.619,34.518,0.135,18.18.782,39.952,1.73,62.89,9.038-66.081,26.979-137.769,56.2-156.069,20.423-12.3,52.449-6.9,60.831,35.229,10.383,49.9-13.463,98.683-52.319,129.4C778.445,731.763,807.289,753.716,818.451,790.577ZM761.96,632.524c0.646-44.046-24.428-69.041-48.878-9.749-13.753,33.352-22.713,83.682-28.781,130.783C716.73,747.678,761.512,690.18,761.96,632.524Z" transform="translate(-487 -533)"/>
    <path id="Loh_copia" data-name="Loh copia" class="cls-1" d="M1333.01,1117.16c-64.5,2.66-15.48-145.766-42.62-144.2-21.04,1.158-34.78,102.858-37.63,147.428,0.09,0.37-.27.46-0.18,0.83l-0.14,5.46c0.23,6.93-4.46,12.79-11.37,14.58a15.242,15.242,0,0,1-18.01-9.81c-4.28,6.81-10.02,12.06-17.68,14.35-9.36,2.8-17.84,1.5-24.25-2.28-8.38,12.64-19.8,21.01-34.1,21.21-70.33,2.62-68.66-165.413-.74-172.842,50.99-5.389,64.54,89.272,40.95,140.742a16.458,16.458,0,0,0,17.07,2.97c9.78-3.99,15.08-14.27,17.96-26.06l2.45-231.764a14.99,14.99,0,0,1,11.37-14.572c9.46-2.439,18.71,4.873,18.97,14.894l-1.73,160.292c7.8-41.976,21.07-83.806,44.83-86.443,62.82-6.114,7.78,152.013,44.1,146.923,13.83-2.02,24.24-35.36,25.12-65.07-0.11-1.91,1.43-3.47,3.61-4.03,2.64-.29,5.12,1.78,4.95,4.15C1375.67,1058.44,1366.8,1115.81,1333.01,1117.16Zm-179.89-113.84c-37.62,1.55-31.02,141.46-4.11,146.54,5.75,1.24,11.01-2.45,15.15-8.95-5.3-2.51-8.82-10.14-7.52-18.62,1.48-9.3,8.54-16.55,15.84-15.33a8.1,8.1,0,0,1,3.37,1.07C1184.37,1064.32,1179.26,1002.4,1153.12,1003.32Zm-86.75-100.226c-1.45,63.61,18.26,189.656,1.98,267.956,16.57,10.09,32.96,20.99,50.48,24.23,23.72,4.75,40.45-1.12,42.28-12.07a5.848,5.848,0,0,1,5.7-4.96l0.1,0.36a5.284,5.284,0,0,1,5.51,6.34c-2.51,17.33-25,32.44-58.92,28.78-19.24-2.41-36.88-9.12-52.79-16.65-6.35,15.99-15.19,28.36-27.35,35.37-30.12,17.08-63.114,3.48-65.044-35.6-1.6-31.79,27.959-51.05,64.014-42.11a35.948,35.948,0,0,0,4.11.88c9.61-80.07-5.25-203.882-.85-237.992-23.9,9.653-59.262,7.91-72.2,32.972-9.52,18.75-2.063,53.68,21.546,54.97,7.536-15.914,17.7-21.639,26.021-17.964,6.22,3.051,7.47,12.424,1.04,17.574,8.21,1.76,10.83,10.4,6.4,15.81-5.23,6.78-16.53,6.59-29.18-3.34-38.969,3.85-52.467-46.989-37.983-72.062,20.329-35.5,64.223-26.262,85.523-41.454,3.31-20.253,8.76-35.236,18.49-38.133,6.54-3.238,17.03-1.675,21,6.222C1080.7,881.94,1078.87,892.887,1066.37,903.094ZM990.3,1175.28c-24.409,13.66-13.6,58.59,13.043,50.56,14-4.39,23.08-20.31,28.38-43.4C1014.89,1174.37,1000.82,1169.46,990.3,1175.28Z" transform="translate(-487 -533)"/>
  </g>
</svg>
